<mxfile host="app.diagrams.net" agent="Mozilla/5.0 (Macintosh; Intel Mac OS X 10_15_7) AppleWebKit/537.36 (KHTML, like Gecko) Chrome/129.0.0.0 Safari/537.36" version="24.7.16">
  <diagram name="Pagina-1" id="X1EaHT0F0lWYmc5kBV3G">
    <mxGraphModel dx="2074" dy="1070" grid="1" gridSize="10" guides="1" tooltips="1" connect="1" arrows="1" fold="1" page="1" pageScale="1" pageWidth="827" pageHeight="1169" math="0" shadow="0">
      <root>
        <mxCell id="0" />
        <mxCell id="1" parent="0" />
        <mxCell id="-YuTvIkEnI6olQMhsquu-3" value="" style="edgeStyle=orthogonalEdgeStyle;rounded=0;orthogonalLoop=1;jettySize=auto;html=1;" edge="1" parent="1" source="-YuTvIkEnI6olQMhsquu-1" target="-YuTvIkEnI6olQMhsquu-2">
          <mxGeometry relative="1" as="geometry" />
        </mxCell>
        <mxCell id="-YuTvIkEnI6olQMhsquu-1" value="START" style="ellipse;whiteSpace=wrap;html=1;fontSize=19;" vertex="1" parent="1">
          <mxGeometry x="354" y="50" width="120" height="80" as="geometry" />
        </mxCell>
        <mxCell id="-YuTvIkEnI6olQMhsquu-5" value="" style="edgeStyle=orthogonalEdgeStyle;rounded=0;orthogonalLoop=1;jettySize=auto;html=1;" edge="1" parent="1" source="-YuTvIkEnI6olQMhsquu-2" target="-YuTvIkEnI6olQMhsquu-4">
          <mxGeometry relative="1" as="geometry" />
        </mxCell>
        <mxCell id="-YuTvIkEnI6olQMhsquu-2" value="a, b (interi positivi)" style="shape=parallelogram;perimeter=parallelogramPerimeter;whiteSpace=wrap;html=1;fixedSize=1;fontSize=19;" vertex="1" parent="1">
          <mxGeometry x="311" y="170" width="206" height="80" as="geometry" />
        </mxCell>
        <mxCell id="-YuTvIkEnI6olQMhsquu-7" value="" style="edgeStyle=orthogonalEdgeStyle;rounded=0;orthogonalLoop=1;jettySize=auto;html=1;" edge="1" parent="1" source="-YuTvIkEnI6olQMhsquu-4" target="-YuTvIkEnI6olQMhsquu-6">
          <mxGeometry relative="1" as="geometry" />
        </mxCell>
        <mxCell id="-YuTvIkEnI6olQMhsquu-14" value="" style="edgeStyle=orthogonalEdgeStyle;rounded=0;orthogonalLoop=1;jettySize=auto;html=1;" edge="1" parent="1" source="-YuTvIkEnI6olQMhsquu-4" target="-YuTvIkEnI6olQMhsquu-13">
          <mxGeometry relative="1" as="geometry" />
        </mxCell>
        <mxCell id="-YuTvIkEnI6olQMhsquu-15" value="&lt;span style=&quot;font-size: 20px; background-color: rgb(251, 251, 251);&quot;&gt;FALSE&lt;/span&gt;" style="edgeLabel;html=1;align=center;verticalAlign=middle;resizable=0;points=[];" vertex="1" connectable="0" parent="-YuTvIkEnI6olQMhsquu-14">
          <mxGeometry x="-0.4896" y="-1" relative="1" as="geometry">
            <mxPoint y="-16" as="offset" />
          </mxGeometry>
        </mxCell>
        <mxCell id="-YuTvIkEnI6olQMhsquu-4" value="a Ã¨ uguale a b?" style="rhombus;whiteSpace=wrap;html=1;fontSize=19;" vertex="1" parent="1">
          <mxGeometry x="322.5" y="310" width="183" height="130" as="geometry" />
        </mxCell>
        <mxCell id="-YuTvIkEnI6olQMhsquu-10" value="" style="edgeStyle=orthogonalEdgeStyle;rounded=0;orthogonalLoop=1;jettySize=auto;html=1;" edge="1" parent="1" source="-YuTvIkEnI6olQMhsquu-6" target="-YuTvIkEnI6olQMhsquu-9">
          <mxGeometry relative="1" as="geometry" />
        </mxCell>
        <mxCell id="-YuTvIkEnI6olQMhsquu-6" value="MCD = a = b" style="whiteSpace=wrap;html=1;fontSize=19;" vertex="1" parent="1">
          <mxGeometry x="91" y="555" width="120" height="60" as="geometry" />
        </mxCell>
        <mxCell id="-YuTvIkEnI6olQMhsquu-8" value="&lt;font style=&quot;font-size: 20px;&quot;&gt;TRUE&lt;/font&gt;" style="text;html=1;align=center;verticalAlign=middle;resizable=0;points=[];autosize=1;strokeColor=none;fillColor=none;" vertex="1" parent="1">
          <mxGeometry x="200" y="340" width="80" height="40" as="geometry" />
        </mxCell>
        <mxCell id="-YuTvIkEnI6olQMhsquu-12" value="" style="edgeStyle=orthogonalEdgeStyle;rounded=0;orthogonalLoop=1;jettySize=auto;html=1;" edge="1" parent="1" source="-YuTvIkEnI6olQMhsquu-9" target="-YuTvIkEnI6olQMhsquu-11">
          <mxGeometry relative="1" as="geometry">
            <Array as="points">
              <mxPoint x="151" y="1010" />
            </Array>
          </mxGeometry>
        </mxCell>
        <mxCell id="-YuTvIkEnI6olQMhsquu-9" value="return MCD" style="shape=parallelogram;perimeter=parallelogramPerimeter;whiteSpace=wrap;html=1;fixedSize=1;fontSize=19;" vertex="1" parent="1">
          <mxGeometry x="71.5" y="700" width="159" height="65" as="geometry" />
        </mxCell>
        <mxCell id="-YuTvIkEnI6olQMhsquu-11" value="STOP" style="ellipse;whiteSpace=wrap;html=1;fontSize=19;" vertex="1" parent="1">
          <mxGeometry x="340" y="970" width="129" height="80" as="geometry" />
        </mxCell>
        <mxCell id="-YuTvIkEnI6olQMhsquu-17" value="" style="edgeStyle=orthogonalEdgeStyle;rounded=0;orthogonalLoop=1;jettySize=auto;html=1;" edge="1" parent="1" source="-YuTvIkEnI6olQMhsquu-13" target="-YuTvIkEnI6olQMhsquu-16">
          <mxGeometry relative="1" as="geometry" />
        </mxCell>
        <mxCell id="-YuTvIkEnI6olQMhsquu-18" value="&lt;span style=&quot;font-size: 20px; background-color: rgb(251, 251, 251);&quot;&gt;TRUE&lt;/span&gt;" style="edgeLabel;html=1;align=center;verticalAlign=middle;resizable=0;points=[];" vertex="1" connectable="0" parent="-YuTvIkEnI6olQMhsquu-17">
          <mxGeometry x="-0.3617" y="-3" relative="1" as="geometry">
            <mxPoint x="25" y="-12" as="offset" />
          </mxGeometry>
        </mxCell>
        <mxCell id="-YuTvIkEnI6olQMhsquu-20" value="" style="edgeStyle=orthogonalEdgeStyle;rounded=0;orthogonalLoop=1;jettySize=auto;html=1;" edge="1" parent="1" source="-YuTvIkEnI6olQMhsquu-13" target="-YuTvIkEnI6olQMhsquu-19">
          <mxGeometry relative="1" as="geometry" />
        </mxCell>
        <mxCell id="-YuTvIkEnI6olQMhsquu-21" value="&lt;span style=&quot;font-size: 20px; background-color: rgb(251, 251, 251);&quot;&gt;FALSE&lt;/span&gt;" style="edgeLabel;html=1;align=center;verticalAlign=middle;resizable=0;points=[];" vertex="1" connectable="0" parent="-YuTvIkEnI6olQMhsquu-20">
          <mxGeometry x="-0.6111" y="-2" relative="1" as="geometry">
            <mxPoint x="8" y="-27" as="offset" />
          </mxGeometry>
        </mxCell>
        <mxCell id="-YuTvIkEnI6olQMhsquu-13" value="a &amp;gt; b?" style="rhombus;whiteSpace=wrap;html=1;fontSize=19;" vertex="1" parent="1">
          <mxGeometry x="530" y="500" width="183" height="130" as="geometry" />
        </mxCell>
        <mxCell id="-YuTvIkEnI6olQMhsquu-23" style="edgeStyle=orthogonalEdgeStyle;rounded=0;orthogonalLoop=1;jettySize=auto;html=1;" edge="1" parent="1" source="-YuTvIkEnI6olQMhsquu-16">
          <mxGeometry relative="1" as="geometry">
            <mxPoint x="980" y="660" as="targetPoint" />
            <Array as="points">
              <mxPoint x="420" y="790" />
              <mxPoint x="981" y="790" />
            </Array>
          </mxGeometry>
        </mxCell>
        <mxCell id="-YuTvIkEnI6olQMhsquu-16" value="a = a - b" style="whiteSpace=wrap;html=1;fontSize=19;" vertex="1" parent="1">
          <mxGeometry x="360" y="690" width="120" height="60" as="geometry" />
        </mxCell>
        <mxCell id="-YuTvIkEnI6olQMhsquu-22" style="edgeStyle=orthogonalEdgeStyle;rounded=0;orthogonalLoop=1;jettySize=auto;html=1;" edge="1" parent="1" source="-YuTvIkEnI6olQMhsquu-19">
          <mxGeometry relative="1" as="geometry">
            <mxPoint x="430" y="290" as="targetPoint" />
            <Array as="points">
              <mxPoint x="980" y="720" />
              <mxPoint x="980" y="290" />
            </Array>
          </mxGeometry>
        </mxCell>
        <mxCell id="-YuTvIkEnI6olQMhsquu-19" value="b = b - a" style="whiteSpace=wrap;html=1;fontSize=19;" vertex="1" parent="1">
          <mxGeometry x="780" y="690" width="120" height="60" as="geometry" />
        </mxCell>
      </root>
    </mxGraphModel>
  </diagram>
</mxfile>
